<svg xmlns="http://www.w3.org/2000/svg" viewBox="0 0 512 512" role="img" aria-labelledby="title desc">
  <title id="title">Simav Dental Tutor logo</title>
  <desc id="desc">A polished tooth and study book mark for a dental education tutor.</desc>
  <defs>
    <linearGradient id="bg" x1="64" y1="40" x2="448" y2="472" gradientUnits="userSpaceOnUse">
      <stop offset="0" stop-color="#35d3bf"/>
      <stop offset="0.55" stop-color="#176f63"/>
      <stop offset="1" stop-color="#0d3f38"/>
    </linearGradient>
    <linearGradient id="tooth" x1="158" y1="118" x2="340" y2="386" gradientUnits="userSpaceOnUse">
      <stop offset="0" stop-color="#ffffff"/>
      <stop offset="0.75" stop-color="#e9fbf7"/>
      <stop offset="1" stop-color="#b9eee3"/>
    </linearGradient>
    <filter id="shadow" x="-20%" y="-20%" width="140%" height="150%">
      <feDropShadow dx="0" dy="18" stdDeviation="18" flood-color="#06231f" flood-opacity="0.28"/>
    </filter>
  </defs>
  <rect width="512" height="512" rx="112" fill="url(#bg)"/>
  <circle cx="398" cy="112" r="82" fill="#ffffff" opacity="0.12"/>
  <circle cx="104" cy="404" r="118" fill="#ffffff" opacity="0.08"/>
  <path d="M118 170c42-28 78-32 112-12 18 10 34 10 52 0 34-20 70-16 112 12-10 66-36 118-78 158-17 16-28 38-35 64l-9 35c-4 15-25 15-29 0l-13-50c-6-23-37-23-43 0l-13 50c-4 15-25 15-29 0l-9-35c-7-26-18-48-35-64-42-40-68-92-78-158Z" fill="url(#tooth)" filter="url(#shadow)"/>
  <path d="M162 184c32-18 59-18 82 0 8 6 16 6 24 0 23-18 50-18 82 0" fill="none" stroke="#176f63" stroke-width="18" stroke-linecap="round" opacity="0.28"/>
  <path d="M154 314h204c17 0 30 13 30 30v34H124v-34c0-17 13-30 30-30Z" fill="#0f4f47" opacity="0.92"/>
  <path d="M151 327c38 0 70 8 96 24v54c-25-17-57-26-96-26h-21v-52h21Zm210 0c-38 0-70 8-96 24v54c25-17 57-26 96-26h21v-52h-21Z" fill="#dff8f2"/>
  <path d="M256 344v62" stroke="#35d3bf" stroke-width="10" stroke-linecap="round"/>
</svg>
