<svg width="620" height="430" viewBox="0 0 620 430" fill="none" xmlns="http://www.w3.org/2000/svg">
  <rect width="620" height="430" rx="22" fill="#141A28"/>
  <filter id="blur"><feGaussianBlur stdDeviation="1.8"/></filter>
  <g filter="url(#blur)">
    <rect x="38" y="50" width="544" height="330" rx="18" fill="#343B49"/>
    <path d="M45 205h535" stroke="#9097A3" stroke-width="18" opacity=".5"/>
    <g fill="#CBD1D7">
      <path d="M76 74c34-18 80-16 109 2 21 34 18 88-3 124-35 12-73 12-111 0-23-38-25-92 5-126Z"/>
      <path d="M196 75c35-18 83-17 113 4 20 37 15 90-7 123-34 12-74 12-111 0-22-39-23-93 5-127Z"/>
      <path d="M326 77c34-20 78-18 109 2 22 38 18 91-3 124-36 13-75 12-111 0-23-40-24-94 5-126Z"/>
      <path d="M450 76c34-19 75-17 101 1 24 39 21 89-2 122-35 13-71 13-104 1-23-39-23-91 5-124Z"/>
      <path d="M80 226c38-12 75-11 111 1 19 40 15 87-9 123-31 14-69 14-101 0-25-38-26-87-1-124Z"/>
      <path d="M205 226c37-13 76-12 112 0 20 39 16 89-8 123-33 14-72 14-104 0-25-37-26-88 0-123Z"/>
      <path d="M334 226c36-12 75-12 110 0 20 38 16 87-7 121-32 15-72 15-103 0-25-37-26-85 0-121Z"/>
      <path d="M458 225c34-11 67-10 96 0 23 35 19 84-3 119-29 14-62 14-91 1-24-36-25-84-2-120Z"/>
    </g>
    <path d="M418 187c18-4 34 0 46 10-9 31-9 60 1 89-20 8-40 7-59-4 10-29 10-57 0-84 4-4 8-8 12-11Z" fill="#7424D9" opacity=".6"/>
    <path d="M421 190c17-4 31 0 42 9-8 30-8 57 1 84-19 8-36 7-54-4 9-27 9-54 0-80 3-4 7-7 11-9Z" stroke="#B86CFF" stroke-width="7"/>
  </g>
  <g opacity=".25" stroke="#0A0D15" stroke-width="3">
    <path d="M73 116h502M73 169h502M73 248h502M73 305h502"/>
  </g>
</svg>
