<svg width="720" height="620" viewBox="0 0 720 620" fill="none" xmlns="http://www.w3.org/2000/svg">
  <rect width="720" height="620" rx="34" fill="#0B1630"/>
  <g opacity=".42" stroke="#37599A">
    <path d="M80 162h560M80 252h560M80 342h560M80 432h560"/>
    <path d="M128 116v408M240 116v408M360 116v408M472 116v408M584 116v408"/>
  </g>
  <ellipse cx="360" cy="504" rx="228" ry="40" fill="#071126"/>
  <path d="M175 315c-33 12-57 43-57 79v62c0 34 26 63 60 67l135 16h132l132-17c34-4 59-33 59-67v-62c0-35-22-66-55-78l-69-25H244l-69 25Z" fill="#DD8D7C"/>
  <path d="M165 397h144M421 397h154" stroke="#B85E61" stroke-width="8" stroke-linecap="round"/>
  <path d="M251 81c39-18 75 4 109 37 34-33 70-55 109-37 56 26 62 84 45 149-12 46-26 74-24 133 2 62 18 153-49 162-42 5-43-78-80-79-38 1-41 84-82 79-67-9-51-100-49-162 2-59-12-87-24-133-17-65-11-123 45-149Z" fill="#F8F7F2"/>
  <path d="M275 108c30-11 59 12 85 42 26-30 55-53 85-42 41 15 50 64 35 114-15 51-34 78-32 141 1 42 7 93-26 96-23 2-32-71-62-72-30 1-39 74-62 72-33-3-27-54-26-96 2-63-17-90-32-141-15-50-6-99 35-114Z" fill="#F2C173"/>
  <path d="M303 148c23-4 41 18 57 44 16-26 34-48 57-44 30 5 43 45 29 86-17 47-39 66-38 124 1 22 10 58-12 63-17 4-23-57-36-58-13 1-19 62-36 58-22-5-13-41-12-63 1-58-21-77-38-124-14-41-1-81 29-86Z" fill="#FA7E89"/>
  <path d="M325 187c14-1 24 18 35 42 11-24 21-43 35-42 20 2 30 32 19 62-15 40-29 53-28 99 1 17 7 40-9 44-9 2-11-45-17-46-6 1-8 48-17 46-16-4-10-27-9-44 1-46-13-59-28-99-11-30-1-60 19-62Z" fill="#991F3F"/>
  <path d="M360 231v265" stroke="#F7CC53" stroke-width="10" stroke-linecap="round"/>
  <path d="M334 259c-28 43-50 103-63 183M386 259c28 43 50 103 63 183" stroke="#F7CC53" stroke-width="8" stroke-linecap="round"/>
  <path d="M273 314c45 20 76 56 87 103 11-47 42-83 87-103" stroke="#43D0C5" stroke-width="7" stroke-linecap="round"/>
  <path d="M179 494c94 20 184 26 273 18 34-3 66-8 96-15" stroke="#2AC0FF" stroke-width="8" stroke-linecap="round"/>
  <path d="M179 513c92 17 181 22 267 15 35-3 69-8 101-16" stroke="#F54D69" stroke-width="8" stroke-linecap="round"/>
  <path d="M251 81c39-18 75 4 109 37 34-33 70-55 109-37 56 26 62 84 45 149-12 46-26 74-24 133 2 62 18 153-49 162-42 5-43-78-80-79-38 1-41 84-82 79-67-9-51-100-49-162 2-59-12-87-24-133-17-65-11-123 45-149Z" stroke="#FFFFFF" stroke-width="9"/>
  <circle cx="360" cy="118" r="13" fill="#FFFFFF"/>
</svg>
