<svg xmlns="http://www.w3.org/2000/svg" viewBox="0 0 1200 620" width="1200" height="620">

  <defs>
    <radialGradient id="bone" cx="50%" cy="44%" r="80%">
      <stop offset="0%" stop-color="#394954"/>
      <stop offset="60%" stop-color="#212c35"/>
      <stop offset="100%" stop-color="#10161c"/>
    </radialGradient>
    <linearGradient id="dentin" x1="0" y1="0" x2="0" y2="1">
      <stop offset="0%" stop-color="#aeb8bf"/>
      <stop offset="100%" stop-color="#7c8893"/>
    </linearGradient>
    <filter id="grain"><feTurbulence type="fractalNoise" baseFrequency="0.8" numOctaves="2" stitchTiles="stitch" result="n"/>
      <feColorMatrix in="n" type="matrix" values="0 0 0 0 0 0 0 0 0 0 0 0 0 0 0 0 0 0 0.05 0"/>
      <feComposite operator="over" in2="SourceGraphic"/></filter>
    <filter id="soft"><feGaussianBlur stdDeviation="0.6"/></filter>
  </defs>
  <rect width="1200" height="620" fill="url(#bone)"/>
<g filter="url(#soft)" fill="#0e141a" opacity="0.7">
    <ellipse cx="350" cy="200" rx="120" ry="78"/>
    <ellipse cx="850" cy="200" rx="120" ry="78"/>
    <path d="M574 150 q26 -40 52 0 l-8 90 q-18 16 -36 0 Z"/>
  </g><g fill="none" stroke="#9aa7af" stroke-width="6" opacity="0.55" filter="url(#soft)">
    <path d="M150 470 Q600 600 1050 470"/>
    <path d="M150 470 Q120 300 175 150 M1050 470 Q1080 300 1025 150"/>
    <path d="M150 250 q-28 -36 18 -70 M1050 250 q28 -36 -18 -70"/>
  </g><path d="M205 380 Q600 470 995 380" fill="none" stroke="#5a6772" stroke-width="3" opacity="0.4" stroke-dasharray="2 6"/><g opacity="0.4" stroke="#5a6772" stroke-width="0.8" fill="none"><path d="M40 120 L1160 110"/><path d="M40 190 L1160 182"/><path d="M40 260 L1160 254"/><path d="M40 330 L1160 326"/><path d="M40 400 L1160 398"/><path d="M40 470 L1160 470"/><path d="M40 540 L1160 542"/></g><g filter="url(#soft)">
    <path d="M91.59999999999997 269.8304 Q121.59999999999997 273.8304 151.59999999999997 269.8304
    L133.59999999999997 119.8304 Q121.59999999999997 114.8304 109.59999999999997 119.8304 Z" fill="url(#dentin)"/>
    <path d="M91.59999999999997 269.8304 Q121.59999999999997 275.8304 151.59999999999997 269.8304
    L142.59999999999997 218.8304 Q121.59999999999997 221.8304 100.59999999999997 218.8304 Z" fill="#eef3f7" opacity="0.92"/>
    <path d="M121.59999999999997 218.8304 L121.59999999999997 146.8304" stroke="#1b242b" stroke-width="7.199999999999999" opacity="0.8" fill="none" stroke-linecap="round"/>
    
  </g><g filter="url(#soft)">
    <path d="M92.79999999999997 281.8304 Q121.59999999999997 277.8304 150.39999999999998 281.8304
    L133.11999999999998 419.8304 Q121.59999999999997 424.8304 110.07999999999997 419.8304 Z" fill="url(#dentin)"/>
    <path d="M92.79999999999997 281.8304 Q121.59999999999997 275.8304 150.39999999999998 281.8304
    L141.75999999999996 328.7504 Q121.59999999999997 325.7504 101.43999999999997 328.7504 Z" fill="#eef3f7" opacity="0.92"/>
    <path d="M121.59999999999997 328.7504 L121.59999999999997 394.9904" stroke="#1b242b" stroke-width="6.911999999999999" opacity="0.8" fill="none" stroke-linecap="round"/>
    
  </g><g filter="url(#soft)">
    <path d="M167.5076923076923 285.21584852071004 Q195.2 289.21584852071004 222.89230769230767 285.21584852071004
    L206.27692307692305 143.6773869822485 Q195.2 138.6773869822485 184.12307692307692 143.6773869822485 Z" fill="url(#dentin)"/>
    <path d="M167.5076923076923 285.21584852071004 Q195.2 291.21584852071004 222.89230769230767 285.21584852071004
    L214.58461538461538 237.09277159763312 Q195.2 240.09277159763312 175.8153846153846 237.09277159763312 Z" fill="#eef3f7" opacity="0.92"/>
    <path d="M195.2 237.09277159763312 L195.2 169.15431005917156" stroke="#1b242b" stroke-width="6.6461538461538465" opacity="0.8" fill="none" stroke-linecap="round"/>
    
  </g><g filter="url(#soft)">
    <path d="M168.6153846153846 297.21584852071004 Q195.2 293.21584852071004 221.78461538461536 297.21584852071004
    L205.83384615384614 427.43123313609465 Q195.2 432.43123313609465 184.56615384615384 427.43123313609465 Z" fill="url(#dentin)"/>
    <path d="M168.6153846153846 297.21584852071004 Q195.2 291.21584852071004 221.78461538461536 297.21584852071004
    L213.80923076923077 341.48907928994083 Q195.2 338.48907928994083 176.5907692307692 341.48907928994083 Z" fill="#eef3f7" opacity="0.92"/>
    <path d="M195.2 341.48907928994083 L195.2 403.99246390532545" stroke="#1b242b" stroke-width="6.380307692307692" opacity="0.8" fill="none" stroke-linecap="round"/>
    
  </g><g filter="url(#soft)">
    <path d="M243.41538461538462 298.03705562130176 Q268.8 302.03705562130176 294.1846153846154 298.03705562130176
    L278.95384615384614 164.9601325443787 Q268.8 159.9601325443787 258.6461538461539 164.9601325443787 Z" fill="url(#dentin)"/>
    <path d="M243.41538461538462 298.03705562130176 Q268.8 304.03705562130176 294.1846153846154 298.03705562130176
    L286.5692307692308 252.79090177514792 Q268.8 255.79090177514792 251.03076923076924 252.79090177514792 Z" fill="#eef3f7" opacity="0.92"/>
    <path d="M268.8 252.79090177514792 L268.8 188.91397869822487" stroke="#1b242b" stroke-width="6.092307692307693" opacity="0.8" fill="none" stroke-linecap="round"/>
    
  </g><g filter="url(#soft)">
    <path d="M244.43076923076924 310.03705562130176 Q268.8 306.03705562130176 293.1692307692308 310.03705562130176
    L278.54769230769233 432.467824852071 Q268.8 437.467824852071 259.0523076923077 432.467824852071 Z" fill="url(#dentin)"/>
    <path d="M244.43076923076924 310.03705562130176 Q268.8 304.03705562130176 293.1692307692308 310.03705562130176
    L285.85846153846154 351.6635171597633 Q268.8 348.6635171597633 251.74153846153848 351.6635171597633 Z" fill="#eef3f7" opacity="0.92"/>
    <path d="M268.8 351.6635171597633 L268.8 410.4302863905325" stroke="#1b242b" stroke-width="5.8486153846153845" opacity="0.8" fill="none" stroke-linecap="round"/>
    
  </g><g filter="url(#soft)">
    <path d="M319.3230769230769 308.29402130177516 Q342.4 312.29402130177516 365.4769230769231 308.29402130177516
    L351.6307692307692 183.67863668639055 Q342.4 178.67863668639055 333.16923076923075 183.67863668639055 Z" fill="url(#dentin)"/>
    <path d="M319.3230769230769 308.29402130177516 Q342.4 314.29402130177516 365.4769230769231 308.29402130177516
    L358.5538461538461 265.92479053254436 Q342.4 268.92479053254436 326.24615384615385 265.92479053254436 Z" fill="#eef3f7" opacity="0.92"/>
    <path d="M342.4 265.92479053254436 L342.4 206.1094059171598" stroke="#1b242b" stroke-width="5.538461538461538" opacity="0.8" fill="none" stroke-linecap="round"/>
    
  </g><g filter="url(#soft)">
    <path d="M320.24615384615385 320.29402130177516 Q342.4 316.29402130177516 364.5538461538461 320.29402130177516
    L351.26153846153846 434.94017514792904 Q342.4 439.94017514792904 333.5384615384615 434.94017514792904 Z" fill="url(#dentin)"/>
    <path d="M320.24615384615385 320.29402130177516 Q342.4 314.29402130177516 364.5538461538461 320.29402130177516
    L357.9076923076923 359.27371360946745 Q342.4 356.27371360946745 326.89230769230767 359.27371360946745 Z" fill="#eef3f7" opacity="0.92"/>
    <path d="M342.4 359.27371360946745 L342.4 414.30386745562134" stroke="#1b242b" stroke-width="5.316923076923077" opacity="0.8" fill="none" stroke-linecap="round"/>
    
  </g><g filter="url(#soft)">
    <path d="M395.2307692307692 315.9867455621302 Q416 319.9867455621302 436.7692307692308 315.9867455621302
    L424.3076923076923 199.83289940828402 Q416 194.83289940828402 407.6923076923077 199.83289940828402 Z" fill="url(#dentin)"/>
    <path d="M395.2307692307692 315.9867455621302 Q416 321.9867455621302 436.7692307692308 315.9867455621302
    L430.53846153846155 276.4944378698225 Q416 279.4944378698225 401.46153846153845 276.4944378698225 Z" fill="#eef3f7" opacity="0.92"/>
    <path d="M416 276.4944378698225 L416 220.74059171597634" stroke="#1b242b" stroke-width="4.984615384615385" opacity="0.8" fill="none" stroke-linecap="round"/>
    <path d="M436.7692307692308 309.9867455621302 q-9.13846153846154 -3 0 -8" fill="#1b242b" opacity="0.85"/>
  </g><g filter="url(#soft)">
    <path d="M396.0615384615385 327.9867455621302 Q416 323.9867455621302 435.9384615384615 327.9867455621302
    L423.9753846153846 434.84828402366867 Q416 439.84828402366867 408.0246153846154 434.84828402366867 Z" fill="url(#dentin)"/>
    <path d="M396.0615384615385 327.9867455621302 Q416 321.9867455621302 435.9384615384615 327.9867455621302
    L429.9569230769231 364.31966863905325 Q416 361.31966863905325 402.0430769230769 364.31966863905325 Z" fill="#eef3f7" opacity="0.92"/>
    <path d="M416 364.31966863905325 L416 415.6132071005917" stroke="#1b242b" stroke-width="4.785230769230769" opacity="0.8" fill="none" stroke-linecap="round"/>
    
  </g><g filter="url(#soft)">
    <path d="M471.13846153846157 321.1152284023669 Q489.6 325.1152284023669 508.0615384615385 321.1152284023669
    L496.9846153846154 213.4229207100592 Q489.6 208.4229207100592 482.21538461538466 213.4229207100592 Z" fill="url(#dentin)"/>
    <path d="M471.13846153846157 321.1152284023669 Q489.6 327.1152284023669 508.0615384615385 321.1152284023669
    L502.5230769230769 284.49984378698224 Q489.6 287.49984378698224 476.6769230769231 284.49984378698224 Z" fill="#eef3f7" opacity="0.92"/>
    <path d="M489.6 284.49984378698224 L489.6 232.80753609467456" stroke="#1b242b" stroke-width="4.43076923076923" opacity="0.8" fill="none" stroke-linecap="round"/>
    
  </g><g filter="url(#soft)">
    <path d="M471.8769230769231 333.1152284023669 Q489.6 329.1152284023669 507.32307692307694 333.1152284023669
    L496.6892307692308 432.19215147929 Q489.6 437.19215147929 482.51076923076926 432.19215147929 Z" fill="url(#dentin)"/>
    <path d="M471.8769230769231 333.1152284023669 Q489.6 327.1152284023669 507.32307692307694 333.1152284023669
    L502.0061538461539 366.8013822485207 Q489.6 363.8013822485207 477.19384615384615 366.8013822485207 Z" fill="#eef3f7" opacity="0.92"/>
    <path d="M489.6 366.8013822485207 L489.6 414.3583053254438" stroke="#1b242b" stroke-width="4.253538461538461" opacity="0.8" fill="none" stroke-linecap="round"/>
    
  </g><g filter="url(#soft)">
    <path d="M547.0461538461539 323.6794698224852 Q563.2 327.6794698224852 579.3538461538462 323.6794698224852
    L569.6615384615385 224.44870059171598 Q563.2 219.44870059171598 556.7384615384616 224.44870059171598 Z" fill="url(#dentin)"/>
    <path d="M547.0461538461539 323.6794698224852 Q563.2 329.6794698224852 579.3538461538462 323.6794698224852
    L574.5076923076923 289.94100828402367 Q563.2 292.94100828402367 551.8923076923078 289.94100828402367 Z" fill="#eef3f7" opacity="0.92"/>
    <path d="M563.2 289.94100828402367 L563.2 242.31023905325446" stroke="#1b242b" stroke-width="3.8769230769230765" opacity="0.8" fill="none" stroke-linecap="round"/>
    
  </g><g filter="url(#soft)">
    <path d="M547.6923076923077 335.6794698224852 Q563.2 331.6794698224852 578.7076923076924 335.6794698224852
    L569.4030769230769 426.9717775147929 Q563.2 431.9717775147929 556.9969230769232 426.9717775147929 Z" fill="url(#dentin)"/>
    <path d="M547.6923076923077 335.6794698224852 Q563.2 329.6794698224852 578.7076923076924 335.6794698224852
    L574.0553846153847 366.7188544378698 Q563.2 363.7188544378698 552.3446153846154 366.7188544378698 Z" fill="#eef3f7" opacity="0.92"/>
    <path d="M563.2 366.7188544378698 L563.2 410.5391621301775" stroke="#1b242b" stroke-width="3.7218461538461534" opacity="0.8" fill="none" stroke-linecap="round"/>
    
  </g><g filter="url(#soft)">
    <path d="M620.6461538461538 323.6794698224852 Q636.8 327.6794698224852 652.9538461538461 323.6794698224852
    L643.2615384615384 224.44870059171598 Q636.8 219.44870059171598 630.3384615384615 224.44870059171598 Z" fill="url(#dentin)"/>
    <path d="M620.6461538461538 323.6794698224852 Q636.8 329.6794698224852 652.9538461538461 323.6794698224852
    L648.1076923076922 289.94100828402367 Q636.8 292.94100828402367 625.4923076923077 289.94100828402367 Z" fill="#eef3f7" opacity="0.92"/>
    <path d="M636.8 289.94100828402367 L636.8 242.31023905325446" stroke="#1b242b" stroke-width="3.8769230769230765" opacity="0.8" fill="none" stroke-linecap="round"/>
    
  </g><g filter="url(#soft)">
    <path d="M621.2923076923076 335.6794698224852 Q636.8 331.6794698224852 652.3076923076923 335.6794698224852
    L643.0030769230768 426.9717775147929 Q636.8 431.9717775147929 630.5969230769231 426.9717775147929 Z" fill="url(#dentin)"/>
    <path d="M621.2923076923076 335.6794698224852 Q636.8 329.6794698224852 652.3076923076923 335.6794698224852
    L647.6553846153846 366.7188544378698 Q636.8 363.7188544378698 625.9446153846153 366.7188544378698 Z" fill="#eef3f7" opacity="0.92"/>
    <path d="M636.8 366.7188544378698 L636.8 410.5391621301775" stroke="#1b242b" stroke-width="3.7218461538461534" opacity="0.8" fill="none" stroke-linecap="round"/>
    
  </g><g filter="url(#soft)">
    <path d="M691.9384615384615 321.1152284023669 Q710.4 325.1152284023669 728.8615384615384 321.1152284023669
    L717.7846153846153 213.4229207100592 Q710.4 208.4229207100592 703.0153846153846 213.4229207100592 Z" fill="url(#dentin)"/>
    <path d="M691.9384615384615 321.1152284023669 Q710.4 327.1152284023669 728.8615384615384 321.1152284023669
    L723.3230769230769 284.49984378698224 Q710.4 287.49984378698224 697.4769230769231 284.49984378698224 Z" fill="#eef3f7" opacity="0.92"/>
    <path d="M710.4 284.49984378698224 L710.4 232.80753609467456" stroke="#1b242b" stroke-width="4.43076923076923" opacity="0.8" fill="none" stroke-linecap="round"/>
    
  </g><g filter="url(#soft)">
    <path d="M692.676923076923 333.1152284023669 Q710.4 329.1152284023669 728.123076923077 333.1152284023669
    L717.4892307692307 432.19215147929 Q710.4 437.19215147929 703.3107692307692 432.19215147929 Z" fill="url(#dentin)"/>
    <path d="M692.676923076923 333.1152284023669 Q710.4 327.1152284023669 728.123076923077 333.1152284023669
    L722.8061538461538 366.8013822485207 Q710.4 363.8013822485207 697.9938461538461 366.8013822485207 Z" fill="#eef3f7" opacity="0.92"/>
    <path d="M710.4 366.8013822485207 L710.4 414.3583053254438" stroke="#1b242b" stroke-width="4.253538461538461" opacity="0.8" fill="none" stroke-linecap="round"/>
    
  </g><g filter="url(#soft)">
    <path d="M763.2307692307693 315.9867455621302 Q784 319.9867455621302 804.7692307692307 315.9867455621302
    L792.3076923076923 199.83289940828402 Q784 194.83289940828402 775.6923076923077 199.83289940828402 Z" fill="url(#dentin)"/>
    <path d="M763.2307692307693 315.9867455621302 Q784 321.9867455621302 804.7692307692307 315.9867455621302
    L798.5384615384615 276.4944378698225 Q784 279.4944378698225 769.4615384615385 276.4944378698225 Z" fill="#eef3f7" opacity="0.92"/>
    <path d="M784 276.4944378698225 L784 220.74059171597634" stroke="#1b242b" stroke-width="4.984615384615385" opacity="0.8" fill="none" stroke-linecap="round"/>
    
  </g><g filter="url(#soft)">
    <path d="M764.0615384615385 327.9867455621302 Q784 323.9867455621302 803.9384615384615 327.9867455621302
    L791.9753846153847 434.84828402366867 Q784 439.84828402366867 776.0246153846153 434.84828402366867 Z" fill="url(#dentin)"/>
    <path d="M764.0615384615385 327.9867455621302 Q784 321.9867455621302 803.9384615384615 327.9867455621302
    L797.9569230769231 364.31966863905325 Q784 361.31966863905325 770.0430769230769 364.31966863905325 Z" fill="#eef3f7" opacity="0.92"/>
    <path d="M784 364.31966863905325 L784 415.6132071005917" stroke="#1b242b" stroke-width="4.785230769230769" opacity="0.8" fill="none" stroke-linecap="round"/>
    
  </g><g filter="url(#soft)">
    <path d="M834.5230769230769 308.29402130177516 Q857.6 312.29402130177516 880.6769230769231 308.29402130177516
    L866.8307692307693 183.67863668639055 Q857.6 178.67863668639055 848.3692307692307 183.67863668639055 Z" fill="url(#dentin)"/>
    <path d="M834.5230769230769 308.29402130177516 Q857.6 314.29402130177516 880.6769230769231 308.29402130177516
    L873.7538461538462 265.92479053254436 Q857.6 268.92479053254436 841.4461538461538 265.92479053254436 Z" fill="#eef3f7" opacity="0.92"/>
    <path d="M857.6 265.92479053254436 L857.6 206.1094059171598" stroke="#1b242b" stroke-width="5.538461538461538" opacity="0.8" fill="none" stroke-linecap="round"/>
    
  </g><g filter="url(#soft)">
    <path d="M835.4461538461538 320.29402130177516 Q857.6 316.29402130177516 879.7538461538462 320.29402130177516
    L866.4615384615385 434.94017514792904 Q857.6 439.94017514792904 848.7384615384616 434.94017514792904 Z" fill="url(#dentin)"/>
    <path d="M835.4461538461538 320.29402130177516 Q857.6 314.29402130177516 879.7538461538462 320.29402130177516
    L873.1076923076923 359.27371360946745 Q857.6 356.27371360946745 842.0923076923077 359.27371360946745 Z" fill="#eef3f7" opacity="0.92"/>
    <path d="M857.6 359.27371360946745 L857.6 414.30386745562134" stroke="#1b242b" stroke-width="5.316923076923077" opacity="0.8" fill="none" stroke-linecap="round"/>
    
  </g><g filter="url(#soft)">
    <path d="M905.8153846153847 298.03705562130176 Q931.2 302.03705562130176 956.5846153846154 298.03705562130176
    L941.3538461538462 164.9601325443787 Q931.2 159.9601325443787 921.0461538461539 164.9601325443787 Z" fill="url(#dentin)"/>
    <path d="M905.8153846153847 298.03705562130176 Q931.2 304.03705562130176 956.5846153846154 298.03705562130176
    L948.9692307692308 252.79090177514792 Q931.2 255.79090177514792 913.4307692307693 252.79090177514792 Z" fill="#eef3f7" opacity="0.92"/>
    <path d="M931.2 252.79090177514792 L931.2 188.91397869822487" stroke="#1b242b" stroke-width="6.092307692307693" opacity="0.8" fill="none" stroke-linecap="round"/>
    
  </g><g filter="url(#soft)">
    <path d="M906.8307692307693 310.03705562130176 Q931.2 306.03705562130176 955.5692307692308 310.03705562130176
    L940.9476923076924 432.467824852071 Q931.2 437.467824852071 921.4523076923077 432.467824852071 Z" fill="url(#dentin)"/>
    <path d="M906.8307692307693 310.03705562130176 Q931.2 304.03705562130176 955.5692307692308 310.03705562130176
    L948.2584615384616 351.6635171597633 Q931.2 348.6635171597633 914.1415384615385 351.6635171597633 Z" fill="#eef3f7" opacity="0.92"/>
    <path d="M931.2 351.6635171597633 L931.2 410.4302863905325" stroke="#1b242b" stroke-width="5.8486153846153845" opacity="0.8" fill="none" stroke-linecap="round"/>
    
  </g><g filter="url(#soft)">
    <path d="M977.1076923076922 285.21584852071004 Q1004.8 289.21584852071004 1032.4923076923076 285.21584852071004
    L1015.876923076923 143.6773869822485 Q1004.8 138.6773869822485 993.7230769230769 143.6773869822485 Z" fill="url(#dentin)"/>
    <path d="M977.1076923076922 285.21584852071004 Q1004.8 291.21584852071004 1032.4923076923076 285.21584852071004
    L1024.1846153846154 237.09277159763312 Q1004.8 240.09277159763312 985.4153846153846 237.09277159763312 Z" fill="#eef3f7" opacity="0.92"/>
    <path d="M1004.8 237.09277159763312 L1004.8 169.15431005917156" stroke="#1b242b" stroke-width="6.6461538461538465" opacity="0.8" fill="none" stroke-linecap="round"/>
    
  </g><g filter="url(#soft)">
    <path d="M978.2153846153846 297.21584852071004 Q1004.8 293.21584852071004 1031.3846153846152 297.21584852071004
    L1015.4338461538462 427.43123313609465 Q1004.8 432.43123313609465 994.1661538461537 427.43123313609465 Z" fill="url(#dentin)"/>
    <path d="M978.2153846153846 297.21584852071004 Q1004.8 291.21584852071004 1031.3846153846152 297.21584852071004
    L1023.4092307692307 341.48907928994083 Q1004.8 338.48907928994083 986.1907692307692 341.48907928994083 Z" fill="#eef3f7" opacity="0.92"/>
    <path d="M1004.8 341.48907928994083 L1004.8 403.99246390532545" stroke="#1b242b" stroke-width="6.380307692307692" opacity="0.8" fill="none" stroke-linecap="round"/>
    
  </g><g filter="url(#soft)">
    <path d="M1048.4 269.8304 Q1078.4 273.8304 1108.4 269.8304
    L1090.4 119.8304 Q1078.4 114.8304 1066.4 119.8304 Z" fill="url(#dentin)"/>
    <path d="M1048.4 269.8304 Q1078.4 275.8304 1108.4 269.8304
    L1099.4 218.8304 Q1078.4 221.8304 1057.4 218.8304 Z" fill="#eef3f7" opacity="0.92"/>
    <path d="M1078.4 218.8304 L1078.4 146.8304" stroke="#1b242b" stroke-width="7.199999999999999" opacity="0.8" fill="none" stroke-linecap="round"/>
    
  </g><g filter="url(#soft)">
    <path d="M1049.6000000000001 281.8304 Q1078.4 277.8304 1107.2 281.8304
    L1089.92 419.8304 Q1078.4 424.8304 1066.88 419.8304 Z" fill="url(#dentin)"/>
    <path d="M1049.6000000000001 281.8304 Q1078.4 275.8304 1107.2 281.8304
    L1098.5600000000002 328.7504 Q1078.4 325.7504 1058.24 328.7504 Z" fill="#eef3f7" opacity="0.92"/>
    <path d="M1078.4 328.7504 L1078.4 394.9904" stroke="#1b242b" stroke-width="6.911999999999999" opacity="0.8" fill="none" stroke-linecap="round"/>
    
  </g><ellipse cx="194.39999999999998" cy="141.06240000000003" rx="22" ry="17" fill="#0b1015" opacity="0.85" filter="url(#soft)"/><g transform="rotate(58 1068 348.15999999999997)"><g filter="url(#soft)">
    <path d="M1042 348.15999999999997 Q1068 344.15999999999997 1094 348.15999999999997
    L1078.4 438.15999999999997 Q1068 443.15999999999997 1057.6 438.15999999999997 Z" fill="url(#dentin)"/>
    <path d="M1042 348.15999999999997 Q1068 342.15999999999997 1094 348.15999999999997
    L1086.2 378.76 Q1068 375.76 1049.8 378.76 Z" fill="#eef3f7" opacity="0.92"/>
    <path d="M1068 378.76 L1068 421.96" stroke="#1b242b" stroke-width="6.24" opacity="0.8" fill="none" stroke-linecap="round"/>
    
  </g></g>
  <rect width="1200" height="620" filter="url(#grain)" opacity="0.45"/>
</svg>